<svg xmlns="http://www.w3.org/2000/svg" width="256" height="256"><path fill-opacity=".016" d="M0 128.004v128.004l128.25-.254 128.25-.254.254-127.75L257.008 0H0v128.004m.485.496c0 70.4.119 99.053.265 63.672.146-35.38.146-92.98 0-128C.604 29.153.485 58.1.485 128.5" fill="#1976D2" fill-rule="evenodd"/><path fill-opacity=".051" d="M144.43 7.511c-4.549 1.997-9.415 7.935-14.333 17.489-2.406 4.675-5.818 10.3-7.581 12.5-1.763 2.2-3.792 5.125-4.509 6.5-.717 1.375-2.362 3.772-3.656 5.327-1.293 1.554-2.351 3.533-2.351 4.397 0 .863-1.509 3.416-3.353 5.673C105.646 63.068 95 83.917 95 86.121c0 .483-.477.879-1.059.879s-.8.419-.484.931c.317.512.088 1.232-.509 1.601-.596.369-.834 1.323-.528 2.121.331.861.128 1.185-.5.798-.581-.359-.833-1.235-.56-1.946.368-.961-.193-1.107-2.182-.566-2.519.684-2.658 1.028-2.344 5.801.214 3.258-.194 5.914-1.138 7.418-.809 1.288-1.774 5.196-2.144 8.685-.37 3.489-1.088 7.436-1.595 8.771-.508 1.335-1.219 7.255-1.581 13.157-.714 11.635-.71 12.04.177 17.229.329 1.925.125 4.738-.453 6.25-.966 2.528-1.484 2.75-6.415 2.75-4.783 0-5.49.277-6.529 2.557-1.412 3.1-.801 5.816 2.967 13.183 1.582 3.094 2.877 5.993 2.877 6.441 0 1.602 7.098 10.657 10.269 13.099 1.777 1.369 5.481 4.556 8.231 7.082 2.75 2.527 5.957 4.604 7.128 4.616 1.17.012 2.687.697 3.372 1.522.685.825 2 1.5 2.922 1.5 2.1 0 4.076 1.912 4.084 3.95.004.852.635 2.756 1.404 4.23 1.211 2.319 2.223 16.132 2.535 34.57L113 256h8.933c10.171 0 10.808-.551 9.646-8.349-.34-2.283-.819-8.369-1.064-13.524-.25-5.246-1.027-10.309-1.767-11.5-.776-1.25-1.1-3.541-.784-5.559.424-2.713 1.125-3.588 3.35-4.18 1.548-.412 3.348-1.171 4-1.687.652-.516 2.694-.968 4.537-1.005 1.842-.038 4.092-.722 5-1.522.907-.8 4.124-2.45 7.149-3.667 8.935-3.596 9.199-3.772 18.03-12.03 4.659-4.356 8.75-7.933 9.092-7.948 1.566-.072 14.814-17.311 15.917-20.713.681-2.099 1.999-4.941 2.928-6.316 4.145-6.134 9.033-16.04 9.033-18.305 0-1.365-.661-2.735-1.469-3.045-1.116-.428-1.346-1.716-.955-5.357.46-4.289.273-4.898-1.781-5.793-2.157-.94-2.305-1.602-2.455-11-.129-8.073-.933-12.988-4.168-25.5-4.657-18.009-5.813-21.34-7.13-20.526-.529.327-2.349-3.868-4.043-9.322-1.695-5.454-3.963-10.714-5.04-11.689-1.077-.975-1.959-1.393-1.959-.928 0 1.959-6.809-13.345-7.389-16.608-1.135-6.385-10.859-19.453-16.736-22.492-3.337-1.725-5.379-1.709-9.445.076m-22.68 77.948c-3.669 4.424-3.508 5.316.25 1.384 1.65-1.727 3-3.523 3-3.991 0-1.228-.205-1.063-3.25 2.607m-6.193 2.802c.506 1.338.278 1.613-.946 1.143-.886-.34-1.611-.217-1.611.273 0 1.321-5.489 4.323-7.904 4.323-1.561 0-2.096.629-2.096 2.466 0 2.805-2.954 9.534-4.185 9.534-.448 0-.815 1.125-.815 2.5 0 1.49.572 2.5 1.417 2.5.779 0 1.593.531 1.81 1.18.679 2.037 3.796.007 5.246-3.416.76-1.795 2.315-3.83 3.455-4.522 1.139-.693 2.072-2.085 2.072-3.095 0-1.011.859-2.614 1.909-3.564 1.049-.95 2.466-3.075 3.148-4.721 1.062-2.564.996-3.235-.462-4.678-1.597-1.579-1.662-1.574-1.038.077m33.522 4.322c.048 1.165.285 1.402.604.605.289-.722.253-1.585-.079-1.917-.332-.332-.568.258-.525 1.312M93 94.941c0 .518.445 1.216.989 1.552.566.35.734-.051.393-.941C93.717 93.82 93 93.503 93 94.941m58.341 1.391c.362 1.007.659 2.695.659 3.75 0 1.055.419 1.918.93 1.918.987 0-.323-5.786-1.558-6.886-.38-.338-.394.21-.031 1.218m-55.262 6.251c.048 1.165.285 1.402.604.605.289-.722.253-1.585-.079-1.917-.332-.332-.568.258-.525 1.312m58 2c.048 1.165.285 1.402.604.605.289-.722.253-1.585-.079-1.917-.332-.332-.568.258-.525 1.312M171.158 115c0 1.375.227 1.938.504 1.25.278-.687.278-1.812 0-2.5-.277-.687-.504-.125-.504 1.25m7.842-1.001c-2.475.411-4.744.611-5.042.444-.299-.168-.629.452-.735 1.376-.626 5.465-2.163 8.193-2.309 4.098-.078-2.19-.172-2.135-1.004.583-.605 1.975-.515 4.61.264 7.71 1.042 4.146.953 5.152-.745 8.392-1.44 2.748-1.612 3.794-.679 4.123.688.243 1.197 1.867 1.132 3.608l-.119 3.167-.653-3c-.717-3.297-1.905-2.363-2.721 2.14-.386 2.125-.162 2.487 1.211 1.96 1.334-.512 1.448-.363.55.719-.623.751-.837 1.661-.475 2.023.362.362-.092.658-1.008.658-.917 0-1.714.338-1.771.75-.058.412-.211 2.449-.34 4.527-.2 3.207-3.326 8.12-4.716 7.413-.205-.105-.01.256.435.802.512.628 1.191.445 1.853-.5.839-1.198.954-1.07.581.647-.255 1.177-.076 2.752.398 3.5.683 1.078.866 1.014.878-.308.008-.918.628-2.943 1.378-4.5.75-1.557 2.001-4.174 2.78-5.817.78-1.642 2.529-3.537 3.887-4.211 1.359-.674 3.257-2.193 4.22-3.375.963-1.182 1.75-1.74 1.75-1.239 0 .501-.562 1.542-1.25 2.313-1.047 1.174-.991 1.208.342.208.876-.656 1.871-.914 2.212-.573.34.341.116-.713-.499-2.342-.878-2.326-.806-3.588.333-5.878 1.002-2.014 1.21-4.001.672-6.417-.429-1.925-.491-4.625-.138-6 .352-1.375.764-3.121.915-3.881.151-.759.756-1.862 1.344-2.45 1.488-1.488 1.348-6.666-.181-6.684-.849-.011-.78-.313.216-.943.93-.588 1.937-.538 2.75.138.976.809 1.284.562 1.284-1.026 0-1.54-.439-1.923-1.664-1.453-1.119.43-1.427.256-.941-.531.398-.644.584-1.114.414-1.045-.17.069-2.334.462-4.809.874m-5.099 6.441c-1.584 2.312-2.605 3.05-3.114 2.25-.473-.744-.762-.354-.772 1.039-.013 1.956.263 2.102 2.258 1.192 1.263-.575 2.752-2.566 3.351-4.478.593-1.894.978-3.443.856-3.443s-1.283 1.548-2.579 3.44M175 143.059c0 .582.45.781 1 .441s1-.816 1-1.059-.45-.441-1-.441-1 .477-1 1.059m2.583 10.691c-.412.412-1.05.768-1.416.79-.367.022-2.242 1.566-4.167 3.43-1.925 1.865-2.934 3.055-2.242 2.646.994-.588 1.016-.214.103 1.789-.634 1.393-1.491 2.324-1.902 2.069-.412-.254-1.022.247-1.354 1.114-.859 2.236-.789 2.412.951 2.412 1.07 0 .68.771-1.25 2.468l-2.806 2.469 3.528.031c2.325.021 4.114-.653 5.25-1.979 2.025-2.366 2.23-3.399.472-2.388-.726.418-.901.338-.417-.191.459-.5 1.134-.91 1.5-.91.367 0 1.645-.978 2.84-2.173 1.584-1.584 1.82-2.308.872-2.672-.716-.274-1.872.029-2.57.673-.993.918-1.095.847-.47-.328.44-.825 1.493-2.307 2.341-3.293 1.417-1.648 1.385-1.736-.402-1.09-1.682.609-1.618.346.477-1.953 1.331-1.461 2.193-2.883 1.916-3.16-.277-.277-.841-.166-1.254.246" fill="#1976D2" fill-rule="evenodd"/><path fill-opacity=".189" d="M146.642 11.41c-3.123 2.554-2.869 2.993 2.358 4.088 4.222.884 6 2.189 6 4.402 0 .911.9 2.426 2 3.368 1.1.942 2 2.357 2 3.145 0 1.223 5.464 7.587 6.514 7.587.198 0 .106-1.687-.205-3.75-.327-2.172-1.774-5.033-3.437-6.798-1.58-1.676-2.872-3.724-2.872-4.552 0-1.44-7.673-9.939-8.906-9.864-.327.02-1.88 1.088-3.452 2.374m6.437 9.173c.048 1.165.285 1.402.604.605.289-.722.253-1.585-.079-1.917-.332-.332-.568.258-.525 1.312M143.077 53.73c-1.064 2.335-.514 7.27.809 7.27.368 0 1.694-.718 2.948-1.596 3.087-2.162 2.737-7.674-.502-7.904-1.406-.1-2.551.685-3.255 2.23m-11.709 19.053c-.613.98-1.423 3.193-1.802 4.916-.378 1.724-1.336 3.382-2.127 3.686-.791.304-1.439 1.048-1.439 1.655s.707.396 1.571-.469c1.733-1.732 3.909-2.157 2.929-.571-.34.55-.141 1 .441 1S132 82.237 132 81.305c0-1.189 1.045-.554 3.5 2.125 1.925 2.102 3.5 4.403 3.5 5.114 0 .711 1.883 3.242 4.185 5.624 2.687 2.781 4.393 5.585 4.764 7.832.436 2.641 1.127 3.578 2.814 3.82 1.292.184 2.237-.208 2.237-.929 0-1.509-1.81-7.226-3.654-11.542-.74-1.733-1.346-3.491-1.346-3.906 0-.415-1.125-2.229-2.5-4.032s-2.5-3.809-2.5-4.458c0-2.432-4.357-8.814-6.389-9.359-3.308-.888-4.052-.719-5.243 1.189m-12.363 19.21c-1.182 1.661-1.809 3.553-1.408 4.25.398.691.351.919-.106.505-1.031-.936-4.491 2.079-4.491 3.914 0 .743-1.125 2.329-2.5 3.525-1.375 1.195-2.5 2.72-2.5 3.388 0 .667-1.384 2.695-3.076 4.507-1.692 1.811-3.138 4.108-3.213 5.105-.075.997-.716 1.813-1.424 1.813s-1.29 1.013-1.294 2.25c-.003 1.237-.831 3.501-1.839 5.03-1.498 2.272-1.862 5.01-1.991 15-.15 11.544-1.523 21.052-3.346 23.17-.449.522-.817 2.435-.817 4.25s-.436 3.3-.969 3.3c-.532 0-.731-.619-.441-1.375.363-.945-.268-1.375-2.016-1.375-3.391 0-7.574-2.844-7.574-5.151 0-2.603-1.897-3.803-6.211-3.928-7.805-.226-8.415 4.551-2.214 17.329 5.384 11.096 6.653 12.995 10.914 16.341 2.206 1.732 6.434 5.401 9.395 8.154 3.313 3.08 6.294 5.005 7.75 5.005 1.301 0 2.366.437 2.366.971 0 .535 1.456 1.349 3.235 1.81 2.523.654 3.458 1.595 4.25 4.279.558 1.892 1.351 3.956 1.761 4.588.41.631 1.021 8.956 1.357 18.5.336 9.543.815 17.69 1.063 18.102.249.412 4.23.75 8.848.75h8.395l.637-3.395c.35-1.867.198-4.229-.338-5.25-.536-1.02-.983-6.18-.994-11.465-.013-6.961-.475-10.494-1.675-12.814-.911-1.762-1.517-4.608-1.348-6.324.244-2.46.905-3.278 3.123-3.867 5.727-1.519 7.246-4.833 3.874-8.453-1.432-1.537-1.634-2.632-.962-5.224.467-1.804 1.252-3.031 1.743-2.727.491.303 1.18.087 1.531-.481s1.057-.774 1.569-.457c.512.316.963-.464 1.001-1.734.067-2.196.116-2.211.992-.309l.921 2-.252-2c-.29-2.307-4.116-3.255-6.19-1.534-1.108.919-1.216.525-.602-2.196.412-1.825 1.215-4.206 1.785-5.294 1.836-3.501 1.419-12.276-.79-16.605-1.373-2.693-1.782-4.696-1.259-6.178.425-1.206.898-5.793 1.051-10.193.694-19.931 1.001-26.219 1.426-29.21.393-2.756.07-3.369-2.283-4.344-2.867-1.188-5.21-5.893-4.22-8.474.372-.968-.071-1.477-1.292-1.487-1.588-.013-1.64-.171-.357-1.087 1.215-.868 1.088-.982-.668-.6-1.938.422-2.116.138-1.669-2.663.293-1.839-.151-4.375-1.075-6.135-.867-1.65-1.578-2.437-1.582-1.75-.003.688-.793 1.214-1.756 1.171-.963-.043-1.21-.298-.55-.567.819-.333.922-1.219.323-2.794-.569-1.496-.481-2.702.25-3.433.62-.62.843-1.127.495-1.127-.347 0-1.591 1.347-2.763 2.993m44.01-2.243c.009.412.452 1.425.985 2.25.784 1.213.972 1.069.985-.75.008-1.237-.435-2.25-.985-2.25s-.993.338-.985.75m-75.763 5.791c.558 4.952 3.005 8.459 5.903 8.459 1.289 0 1.845-.735 1.845-2.441 0-1.343-.45-2.719-1-3.059-.55-.34-1-1.422-1-2.404C93 94.076 90.007 91 88.041 91c-.952 0-1.164 1.217-.789 4.541M176 93.066c0 2.033 2.078 4.934 3.535 4.934.961 0 1.465-1.032 1.465-3 0-2.533-.389-3-2.5-3-1.375 0-2.5.48-2.5 1.066m21.116 36.484c-.064 1.128-.52 2.478-1.014 3-.494.522-1.211 3.313-1.594 6.2-.577 4.355-.434 5.25.839 5.25 2.107 0 2.74-1.305 3.165-6.519.2-2.459.644-4.924.985-5.476.342-.553.177-1.005-.365-1.005s-1.191-.787-1.443-1.75c-.376-1.44-.478-1.387-.573.3m-35.069 48.986c-1.899 1.341-3.87 3.232-4.38 4.201-.51.97-1.881 2.527-3.047 3.461-2.063 1.652-2.02 1.675 1.554.872 4.637-1.042 10.074-4.831 9.177-6.396-.369-.646-.327-.864.095-.484 1.088.979 3.4-1.427 2.822-2.935-.696-1.814-2.308-1.482-6.221 1.281m-30.483 17.171c-.542 1.425-.428 1.54.56.56.684-.679.991-1.486.683-1.793-.308-.308-.867.247-1.243 1.233" fill="#1976D2" fill-rule="evenodd"/><path fill-opacity=".239" d="M132.564 72.693c-1.119 2.918-.498 4.713 3.436 9.923 2.2 2.914 4 5.72 4 6.236s1.117 1.998 2.483 3.293c1.365 1.295 2.49 2.918 2.5 3.605.009.688 1.142 1.25 2.517 1.25 2.765 0 2.906-.242 1.603-2.764-.494-.955-1.687-3.648-2.652-5.986-.965-2.338-2.136-4.25-2.603-4.25-.466 0-.848-.726-.848-1.614 0-5.297-8.937-13.598-10.436-9.693M94.45 158.75c-.324 1.512-1.007 3.784-1.519 5.047-1.263 3.117-1.173 7.843.192 10.028.866 1.386.751 2.518-.5 4.937-2.134 4.128-2.086 4.555 1.075 9.509 3.372 5.286 6.168 7.678 9.005 7.707 1.212.012 3.349.544 4.75 1.183 1.989.906 2.547 1.891 2.547 4.5 0 2.818-.359 3.339-2.3 3.339-2.225 0-4.7 1.643-4.7 3.121 0 .396 1.263.998 2.808 1.337 4.803 1.055 6.458 7.808 6.904 28.176l.375 17.133 3.082.617c6.051 1.21 13.578.718 14.21-.928.89-2.321-1.232-30.709-2.381-31.858-.549-.549-1.005-2.82-1.013-5.048-.009-2.227-.346-3.6-.75-3.05-.404.55-1.41 1.119-2.235 1.264-.948.168-.673-.443.75-1.66 1.68-1.437 2.25-3.004 2.25-6.186 0-2.343.658-4.988 1.462-5.876 1.972-2.179.894-5.736-1.957-6.451-1.387-.349-2.722-1.775-3.353-3.585-1.069-3.067-3.152-4.133-3.152-1.613 0 2.308-2.695 2.606-5.055.559-2.191-1.9-5.655-7.509-4.009-6.492.468.289 1.139-.623 1.492-2.029.458-1.825.1-3.036-1.253-4.243-1.049-.934-2.453-4.368-3.144-7.688-1.846-8.87-1.704-8.62-4.509-7.916-2.689.675-3.293-.413-1.322-2.384.933-.933.849-1.2-.378-1.2-.867 0-2.137-.675-2.822-1.5-1.927-2.322-3.902-1.779-4.55 1.25" fill="#1976D2" fill-rule="evenodd"/></svg>